<svg width="17" height="18" viewBox="0 0 17 18" fill="#000000" xmlns="http://www.w3.org/2000/svg">
<path d="M7.69948 9.00177L0.710529 2.00967C0.46475 1.76389 0.46475 1.36371 0.710529 1.11793C0.956308 0.872149 1.35649 0.872149 1.60227 1.11793L8.59122 8.11003L15.5833 1.12108C15.8291 0.872149 16.2261 0.872149 16.4719 1.12108C16.7177 1.37001 16.7177 1.76704 16.4719 2.01282L9.48296 9.00177L16.4719 15.9939C16.7177 16.2397 16.7177 16.6398 16.4719 16.8856C16.349 17.0085 16.1883 17.0715 16.0276 17.0715C15.8669 17.0715 15.7062 17.0085 15.5833 16.8856L8.59122 9.89351L1.59912 16.8856C1.47623 17.0085 1.31553 17.0715 1.15482 17.0715C0.994122 17.0715 0.833419 17.0085 0.710529 16.8856C0.46475 16.6398 0.46475 16.2397 0.710529 15.9939L7.69948 9.00177Z" fill="#000000"/>
</svg>
