<?xml version="1.0"?>
<svg xmlns="http://www.w3.org/2000/svg" width="23" height="17" viewBox="0 0 23 17" fill="#ffffff">
<g clip-path="url(#clip0_339:770)">
<path d="M22.7977 1.15625L15.8213 8.0877L22.7977 15.0191C22.9234 14.7541 22.9998 14.4621 22.9998 14.1521V2.02324C22.9998 1.71328 22.9234 1.42129 22.7977 1.15625Z" fill="#ffffff"/>
<path d="M20.9783 0H2.02129C1.71133 0 1.41934 0.0763672 1.1543 0.202148L10.0713 9.07422C10.8574 9.86035 12.1422 9.86035 12.9283 9.07422L21.8453 0.202148C21.5803 0.0763672 21.2883 0 20.9783 0Z" fill="#ffffff"/>
<path d="M0.202148 1.15625C0.0763672 1.42129 0 1.71328 0 2.02324V14.1521C0 14.4621 0.0763672 14.7541 0.202148 15.0191L7.17852 8.0877L0.202148 1.15625Z" fill="#ffffff"/>
<path d="M14.8699 9.03906L13.8816 10.0273C12.5699 11.3391 10.4316 11.3391 9.11543 10.0273L8.12715 9.03906L1.15527 15.9705C1.42031 16.0963 1.7123 16.1727 2.02227 16.1727H20.9793C21.2893 16.1727 21.5812 16.0963 21.8463 15.9705L14.8699 9.03906Z" fill="#ffffff"/>
</g>
<defs>
<clipPath id="clip0_339:770">
<rect width="23" height="16.1719" fill="#ffffff"/>
</clipPath>
</defs>
</svg>
