<svg width="14" height="14" viewBox="0 0 14 14" fill="none" xmlns="http://www.w3.org/2000/svg">
<path fill-rule="evenodd" clip-rule="evenodd" d="M13.75 1.75V12.25C13.75 12.6478 13.592 13.0294 13.3107 13.3107C13.0294 13.592 12.6478 13.75 12.25 13.75H9.4375C9.33804 13.75 9.24266 13.7105 9.17233 13.6402C9.10201 13.5698 9.0625 13.4745 9.0625 13.375V8.875H10.8175C10.9039 8.87502 10.9877 8.84517 11.0547 8.7905C11.1217 8.73583 11.1677 8.6597 11.185 8.575L11.455 7.225C11.4605 7.19806 11.46 7.17024 11.4536 7.14352C11.4471 7.11679 11.4349 7.0918 11.4177 7.07033C11.4005 7.04886 11.3788 7.03143 11.3542 7.01928C11.3295 7.00713 11.3025 7.00054 11.275 7H9.0625V4.5625C9.0625 4.51277 9.08225 4.46508 9.11742 4.42992C9.15258 4.39475 9.20027 4.375 9.25 4.375H11.125C11.2245 4.375 11.3198 4.33549 11.3902 4.26517C11.4605 4.19484 11.5 4.09946 11.5 4V2.875C11.5 2.77554 11.4605 2.68016 11.3902 2.60984C11.3198 2.53951 11.2245 2.5 11.125 2.5H9.25C8.65326 2.5 8.08097 2.73705 7.65901 3.15901C7.23705 3.58097 7 4.15326 7 4.75V7H6.0775C5.97804 7 5.88266 7.03951 5.81234 7.10983C5.74201 7.18016 5.7025 7.27554 5.7025 7.375V8.5C5.7025 8.59946 5.74201 8.69484 5.81234 8.76517C5.88266 8.83549 5.97804 8.875 6.0775 8.875H7V13.375C7 13.4745 6.96049 13.5698 6.89017 13.6402C6.81984 13.7105 6.72446 13.75 6.625 13.75H1.75C1.35218 13.75 0.970644 13.592 0.68934 13.3107C0.408035 13.0294 0.25 12.6478 0.25 12.25V1.75C0.25 1.35218 0.408035 0.970644 0.68934 0.68934C0.970644 0.408035 1.35218 0.25 1.75 0.25H12.25C12.6478 0.25 13.0294 0.408035 13.3107 0.68934C13.592 0.970644 13.75 1.35218 13.75 1.75Z" fill="white"/>
</svg>
