<svg width="89" height="85" viewBox="0 0 89 85" fill="none" xmlns="http://www.w3.org/2000/svg">
<g clip-path="url(#clip0)">
<path d="M44.5 84.9188C44.3025 84.9188 44.1543 84.7712 44.1543 84.5744V73.7506C44.1543 73.5538 44.3025 73.4062 44.5 73.4062C44.6976 73.4062 44.8458 73.5538 44.8458 73.7506V84.5744C44.8458 84.7712 44.6976 84.9188 44.5 84.9188Z" fill="#000504"/>
<path d="M13.3352 40.3919H0.345727C0.148169 40.3919 0 40.2443 0 40.0475C0 39.8507 0.148169 39.7031 0.345727 39.7031H13.3352C13.5327 39.7031 13.6809 39.8507 13.6809 40.0475C13.6809 40.2443 13.5327 40.3919 13.3352 40.3919Z" fill="#000504"/>
<path d="M22.8171 77.5904C22.7677 77.5904 22.669 77.5904 22.6196 77.5412C22.4714 77.4428 22.3726 77.1968 22.4714 77.0492L29.9786 64.2575C30.0774 64.1099 30.3243 64.0115 30.4725 64.1099C30.6207 64.2083 30.7195 64.4543 30.6207 64.6019L23.1135 77.3936C23.0641 77.5412 22.9653 77.5904 22.8171 77.5904Z" fill="#000504"/>
<path d="M7.45901 60.8096C7.36023 60.8096 7.21206 60.7604 7.16267 60.6128C7.06389 60.4652 7.11328 60.2192 7.31084 60.1208L21.4856 51.6586C21.6338 51.5602 21.8808 51.6094 21.9795 51.8062C22.0783 51.9538 22.0289 52.1998 21.8314 52.2982L7.60718 60.8096C7.60718 60.8096 7.5084 60.8096 7.45901 60.8096Z" fill="#000504"/>
<path d="M44.4995 17.1212C44.3513 17.1212 44.2031 16.9736 44.2031 16.826V0.295194C44.2031 0.147597 44.3513 0 44.4995 0C44.6476 0 44.7958 0.147597 44.7958 0.295194V16.7768C44.7958 16.9736 44.6476 17.1212 44.4995 17.1212Z" fill="#000504"/>
<path d="M31.166 17.8591C31.0179 17.8591 30.9191 17.8099 30.8697 17.6623L22.9674 4.18181C22.8686 4.03422 22.918 3.78822 23.1155 3.68982C23.3131 3.59143 23.5106 3.64063 23.6094 3.83742L31.5118 17.3179C31.6105 17.4655 31.5611 17.7115 31.3636 17.8099C31.2648 17.8591 31.2154 17.8591 31.166 17.8591Z" fill="#000504"/>
<path d="M18.5204 25.1869C18.471 25.1869 18.3722 25.1869 18.3228 25.1377L8.00043 18.9878C7.85226 18.8894 7.75348 18.6434 7.85226 18.4958C7.95104 18.3482 8.19799 18.2498 8.34616 18.3482L18.6686 24.4981C18.8167 24.5965 18.9155 24.8425 18.8167 24.9901C18.718 25.1377 18.6192 25.1869 18.5204 25.1869Z" fill="#000504"/>
<path d="M44.4995 17.1212C44.3513 17.1212 44.2031 16.9736 44.2031 16.826V0.295194C44.2031 0.147597 44.3513 0 44.4995 0C44.6476 0 44.7958 0.147597 44.7958 0.295194V16.7768C44.7958 16.9736 44.697 17.1212 44.4995 17.1212Z" fill="#000504"/>
<path d="M57.8347 17.8613C57.7853 17.8613 57.6865 17.8613 57.6371 17.8121C57.489 17.7137 57.3902 17.4677 57.489 17.3201L65.3913 3.83955C65.4901 3.69195 65.737 3.59355 65.8852 3.69195C66.0334 3.79035 66.1321 4.03634 66.0334 4.18394L58.131 17.6645C58.0817 17.8121 57.9829 17.8613 57.8347 17.8613Z" fill="#000504"/>
<path d="M70.4785 25.1925C70.3798 25.1925 70.2316 25.1433 70.1822 24.9957C70.0834 24.8482 70.1328 24.6022 70.3304 24.5038L80.6528 18.3539C80.801 18.2555 81.0479 18.3047 81.1467 18.5015C81.2455 18.6491 81.1961 18.8951 80.9985 18.9935L70.6761 25.1433C70.6267 25.1433 70.5773 25.1925 70.4785 25.1925Z" fill="#000504"/>
<path d="M88.6536 40.3919H75.6641C75.4665 40.3919 75.3184 40.2443 75.3184 40.0475C75.3184 39.8507 75.4665 39.7031 75.6641 39.7031H88.6536C88.8511 39.7031 88.9993 39.8507 88.9993 40.0475C88.9993 40.2443 88.8511 40.3919 88.6536 40.3919Z" fill="#000504"/>
<path d="M57.8347 17.8613C57.7853 17.8613 57.6865 17.8613 57.6371 17.8121C57.489 17.7137 57.3902 17.4677 57.489 17.3201L65.3913 3.83955C65.4901 3.69195 65.737 3.59355 65.8852 3.69195C66.0334 3.79035 66.1321 4.03634 66.0334 4.18394L58.131 17.6645C58.0817 17.8121 57.9829 17.8613 57.8347 17.8613Z" fill="#000504"/>
<path d="M66.183 77.5883C66.0348 77.5883 65.9361 77.5391 65.8867 77.3915L58.3795 64.5998C58.2807 64.4522 58.3301 64.2062 58.5276 64.1078C58.7252 64.0094 58.9228 64.0586 59.0215 64.2554L66.5287 77.0471C66.6275 77.1947 66.5781 77.4407 66.3806 77.5391C66.2818 77.5883 66.2324 77.5883 66.183 77.5883Z" fill="#000504"/>
<path d="M81.5413 60.814C81.4919 60.814 81.3931 60.814 81.3437 60.7648L67.1196 52.2534C66.9714 52.155 66.8726 51.909 66.9714 51.7614C67.0702 51.6138 67.3171 51.5154 67.4653 51.6138L81.6895 60.1252C81.8376 60.2236 81.9364 60.4696 81.8376 60.6172C81.7883 60.7648 81.6895 60.814 81.5413 60.814Z" fill="#000504"/>
<path d="M70.4785 25.1925C70.3798 25.1925 70.2316 25.1433 70.1822 24.9957C70.0834 24.8482 70.1328 24.6022 70.3304 24.5038L80.6528 18.3539C80.801 18.2555 81.0479 18.3047 81.1467 18.5015C81.2455 18.6491 81.1961 18.8951 80.9985 18.9935L70.6761 25.1433C70.6267 25.1433 70.5773 25.1925 70.4785 25.1925Z" fill="#000504"/>
<path d="M44.6487 68.7345C44.5499 68.7345 44.4511 68.6853 44.4017 68.5869L17.9783 36.6076C17.8795 36.5092 17.8795 36.3616 17.9289 36.2632C17.9783 36.1648 18.1265 36.0664 18.2253 36.0664H70.8252C70.9733 36.0664 71.0721 36.1648 71.1215 36.2632C71.1709 36.3616 71.1709 36.5092 71.0721 36.6076L44.945 68.5869C44.8462 68.6853 44.7475 68.7345 44.6487 68.7345ZM18.9167 36.7552L44.6487 67.8489L70.0349 36.7552H18.9167Z" fill="#000504"/>
<path d="M18.471 36.6043L17.9277 36.2107L26.6203 24.2062C26.6697 24.1078 26.7685 24.0586 26.9166 24.0586H62.329C62.4277 24.0586 62.5265 24.1078 62.6253 24.2062L71.1203 36.2107L70.577 36.6043L62.2302 24.7474H27.1142L18.471 36.6043Z" fill="#000504"/>
<path d="M44.3025 68.4822L35.4618 36.5521L26.6211 24.5967L27.2138 24.2031L36.1039 36.2569L44.994 68.2854L44.3025 68.4822Z" fill="#000504"/>
<path d="M44.9942 68.4822L44.3027 68.2854L53.1929 36.2569L62.083 24.2031L62.6757 24.5967L53.8349 36.5521L44.9942 68.4822Z" fill="#000504"/>
<path d="M53.2426 36.6043L44.5006 24.9934L36.055 36.6043L35.5117 36.2107L44.2043 24.2062C44.2537 24.1078 44.3524 24.0586 44.5006 24.0586C44.5994 24.0586 44.6982 24.1078 44.797 24.2062L53.8352 36.2107L53.2426 36.6043Z" fill="#000504"/>
</g>
<defs>
<clipPath id="clip0">
<rect width="89" height="84.9174" fill="white"/>
</clipPath>
</defs>
</svg>
