<svg width="92" height="91" viewBox="0 0 92 91" fill="none" xmlns="http://www.w3.org/2000/svg">
<g clip-path="url(#clip0)">
<path d="M35.6392 77.9444H32.7198V77.669C32.7198 71.8851 31.1223 66.1563 28.1477 61.1986L27.9274 60.8681C25.3384 56.5715 23.9613 51.669 23.9613 46.6562C23.7409 35.3639 32.1138 25.724 43.296 24.3469C49.4655 23.6308 55.635 25.6139 60.2621 29.7452C64.8892 33.8766 67.5333 39.7707 67.5333 45.9952V46.2156C67.5333 51.5037 66.1011 56.6817 63.402 61.1986C60.4274 66.1563 58.8299 71.8851 58.8299 77.669V77.8893H55.9104" stroke="#000504" stroke-width="0.806661" stroke-miterlimit="10" stroke-linecap="round"/>
<path d="M45.6094 18.2893V0.386719" stroke="#000504" stroke-width="0.806661" stroke-miterlimit="10" stroke-linecap="round"/>
<path d="M18.2873 44.3984H0.384766" stroke="#000504" stroke-width="0.806661" stroke-miterlimit="10" stroke-linecap="round"/>
<path d="M17.736 58.8867L4.51562 64.8359" stroke="#000504" stroke-width="0.806661" stroke-miterlimit="10" stroke-linecap="round"/>
<path d="M20.2695 78.8267L24.8416 71.4453" stroke="#000504" stroke-width="0.806661" stroke-miterlimit="10" stroke-linecap="round"/>
<path d="M6.88477 23.4688L18.6729 29.9137" stroke="#000504" stroke-width="0.806661" stroke-miterlimit="10" stroke-linecap="round"/>
<path d="M23.6309 7.65625L30.0207 19.4444" stroke="#000504" stroke-width="0.806661" stroke-miterlimit="10" stroke-linecap="round"/>
<path d="M73.1523 44.3984H90.9998" stroke="#000504" stroke-width="0.806661" stroke-miterlimit="10" stroke-linecap="round"/>
<path d="M73.7031 58.8867L86.9235 64.8359" stroke="#000504" stroke-width="0.806661" stroke-miterlimit="10" stroke-linecap="round"/>
<path d="M71.1677 78.8267L66.5957 71.4453" stroke="#000504" stroke-width="0.806661" stroke-miterlimit="10" stroke-linecap="round"/>
<path d="M84.4987 23.4688L72.7656 29.9137" stroke="#000504" stroke-width="0.806661" stroke-miterlimit="10" stroke-linecap="round"/>
<path d="M67.8098 7.65625L61.4199 19.4444" stroke="#000504" stroke-width="0.806661" stroke-miterlimit="10" stroke-linecap="round"/>
<path d="M40.9277 46.8789H50.6226" stroke="#000504" stroke-width="0.806661" stroke-miterlimit="10" stroke-linecap="round"/>
<path d="M42.8535 56.1875L42.9086 77.946" stroke="#000504" stroke-width="0.806661" stroke-miterlimit="10" stroke-linecap="round"/>
<path d="M54.8631 77.7823V53.1043L45.7741 39.7188L36.7402 53.1043V77.7823" stroke="#000504" stroke-width="0.806661" stroke-miterlimit="10" stroke-linecap="round"/>
<path d="M48.7484 56.1875L48.6934 77.946" stroke="#000504" stroke-width="0.806661" stroke-miterlimit="10" stroke-linecap="round"/>
<path d="M54.8631 53.1055L48.7487 56.1902L45.7741 54.0419L42.8546 56.1902L36.7402 53.1055" stroke="#000504" stroke-width="0.806661" stroke-miterlimit="10" stroke-linecap="round"/>
<path d="M60.4828 77.9492H31.1777V90.6187H60.4828V77.9492Z" stroke="#000504" stroke-width="0.806661" stroke-miterlimit="10" stroke-linecap="round"/>
</g>
<defs>
<clipPath id="clip0">
<rect width="91.4407" height="91" fill="white"/>
</clipPath>
</defs>
</svg>
