<svg width="76" height="91" viewBox="0 0 76 91" fill="none" xmlns="http://www.w3.org/2000/svg">
<g clip-path="url(#clip0)">
<path d="M40.9666 80.6168C56.5157 80.6168 69.1207 68.0118 69.1207 52.4627C69.1207 36.9136 56.5157 24.3086 40.9666 24.3086C25.4175 24.3086 12.8125 36.9136 12.8125 52.4627C12.8125 68.0118 25.4175 80.6168 40.9666 80.6168Z" stroke="#000504" stroke-width="0.738123" stroke-miterlimit="10" stroke-linejoin="round"/>
<path d="M43.4961 24.4141C43.4961 24.4141 47.7139 32.6389 47.7139 52.4627C47.7139 72.2866 43.4961 80.5114 43.4961 80.5114" stroke="#000504" stroke-width="0.738123" stroke-miterlimit="10" stroke-linejoin="round"/>
<path d="M50.6152 25.9961C50.6152 25.9961 60.2108 36.3298 60.2108 52.4103C60.2108 68.4909 50.6152 78.8246 50.6152 78.8246" stroke="#000504" stroke-width="0.738123" stroke-miterlimit="10" stroke-linejoin="round"/>
<path d="M38.4874 24.4141C38.4874 24.4141 34.2695 32.6389 34.2695 52.4627C34.2695 72.2866 38.4874 80.5114 38.4874 80.5114" stroke="#000504" stroke-width="0.738123" stroke-miterlimit="10" stroke-linejoin="round"/>
<path d="M31.371 25.9961C31.371 25.9961 21.7754 36.3298 21.7754 52.4103C21.7754 68.4909 31.371 78.8246 31.371 78.8246" stroke="#000504" stroke-width="0.738123" stroke-miterlimit="10" stroke-linejoin="round"/>
<path d="M16.6074 38.332H65.5871" stroke="#000504" stroke-width="0.738123" stroke-miterlimit="10" stroke-linejoin="round"/>
<path d="M16.6074 66.0117H65.5871" stroke="#000504" stroke-width="0.738123" stroke-miterlimit="10" stroke-linejoin="round"/>
<path d="M12.8125 52.0938H69.1207" stroke="#000504" stroke-width="0.738123" stroke-miterlimit="10" stroke-linejoin="round"/>
<path d="M43.495 24.4128V18.4023H38.4863V24.4128" stroke="#000504" stroke-width="0.738123" stroke-miterlimit="10" stroke-linejoin="round"/>
<path d="M41.125 6.43359V18.4017" stroke="#000504" stroke-width="0.738123" stroke-miterlimit="10" stroke-linejoin="round"/>
<path d="M26.5723 0.371094H55.4118" stroke="#000504" stroke-width="0.738123" stroke-miterlimit="10" stroke-linejoin="round"/>
<path d="M31.8984 0.371094L33.1111 6.17063H41.125" stroke="#000504" stroke-width="0.738123" stroke-miterlimit="10" stroke-linejoin="round"/>
<path d="M50.2461 0.371094L48.9807 6.17063H41.0195" stroke="#000504" stroke-width="0.738123" stroke-miterlimit="10" stroke-linejoin="round"/>
<path d="M9.97656 70.5195V79.377" stroke="#000504" stroke-width="0.738123" stroke-miterlimit="10" stroke-linejoin="round"/>
<path d="M9.97656 83.8047V92.6622" stroke="#000504" stroke-width="0.738123" stroke-miterlimit="10" stroke-linejoin="round"/>
<path d="M11.9277 81.6445H20.7852" stroke="#000504" stroke-width="0.738123" stroke-miterlimit="10" stroke-linejoin="round"/>
<path d="M-0.832031 81.6445H8.02544" stroke="#000504" stroke-width="0.738123" stroke-miterlimit="10" stroke-linejoin="round"/>
<path d="M66.5664 6.48438V15.3418" stroke="#000504" stroke-width="0.738123" stroke-miterlimit="10" stroke-linejoin="round"/>
<path d="M66.5664 19.7695V28.627" stroke="#000504" stroke-width="0.738123" stroke-miterlimit="10" stroke-linejoin="round"/>
<path d="M68.5176 17.6094H77.3751" stroke="#000504" stroke-width="0.738123" stroke-miterlimit="10" stroke-linejoin="round"/>
<path d="M55.7578 17.6094H64.6153" stroke="#000504" stroke-width="0.738123" stroke-miterlimit="10" stroke-linejoin="round"/>
</g>
<defs>
<clipPath id="clip0">
<rect width="75.7103" height="91" fill="white"/>
</clipPath>
</defs>
</svg>
