<svg width="14" height="14" viewBox="0 0 14 14" fill="none" xmlns="http://www.w3.org/2000/svg">
<path d="M7 4.15625C5.4168 4.15625 4.12891 5.44414 4.12891 7.02734C4.12891 8.61055 5.4168 9.89844 7 9.89844C8.5832 9.89844 9.87109 8.61055 9.87109 7.02734C9.87109 5.44414 8.5832 4.15625 7 4.15625ZM7 4.15625C5.4168 4.15625 4.12891 5.44414 4.12891 7.02734C4.12891 8.61055 5.4168 9.89844 7 9.89844C8.5832 9.89844 9.87109 8.61055 9.87109 7.02734C9.87109 5.44414 8.5832 4.15625 7 4.15625ZM11.9492 0H2.05078C0.91875 0 0 0.91875 0 2.05078V11.9492C0 13.0813 0.91875 14 2.05078 14H11.9492C13.0813 14 14 13.0813 14 11.9492V2.05078C14 0.91875 13.0813 0 11.9492 0ZM7 10.7188C4.96562 10.7188 3.30859 9.06172 3.30859 7.02734C3.30859 4.99297 4.96562 3.33594 7 3.33594C9.03438 3.33594 10.6914 4.99297 10.6914 7.02734C10.6914 9.06172 9.03438 10.7188 7 10.7188ZM11.5117 3.33594C11.0605 3.33594 10.6914 2.9668 10.6914 2.51562C10.6914 2.06445 11.0605 1.69531 11.5117 1.69531C11.9629 1.69531 12.332 2.06445 12.332 2.51562C12.332 2.9668 11.9629 3.33594 11.5117 3.33594ZM7 4.15625C5.4168 4.15625 4.12891 5.44414 4.12891 7.02734C4.12891 8.61055 5.4168 9.89844 7 9.89844C8.5832 9.89844 9.87109 8.61055 9.87109 7.02734C9.87109 5.44414 8.5832 4.15625 7 4.15625ZM7 4.15625C5.4168 4.15625 4.12891 5.44414 4.12891 7.02734C4.12891 8.61055 5.4168 9.89844 7 9.89844C8.5832 9.89844 9.87109 8.61055 9.87109 7.02734C9.87109 5.44414 8.5832 4.15625 7 4.15625ZM7 4.15625C5.4168 4.15625 4.12891 5.44414 4.12891 7.02734C4.12891 8.61055 5.4168 9.89844 7 9.89844C8.5832 9.89844 9.87109 8.61055 9.87109 7.02734C9.87109 5.44414 8.5832 4.15625 7 4.15625Z" fill="white"/>
</svg>
