<svg width="25" height="25" viewBox="0 0 25 25" fill="none" xmlns="http://www.w3.org/2000/svg">
<g clip-path="url(#clip0_339:729)">
<path d="M24.8438 18.8096C24.7315 18.7314 22.1534 16.9834 18.8526 16.8369C19.4434 16.417 20.0343 15.9287 20.6007 15.3623C22.4171 13.5459 23.5157 11.3828 24.1163 9.88867C24.7657 8.27246 24.9903 7.09082 25.0001 7.04199C25.0196 6.9248 24.9854 6.80273 24.8975 6.71484C24.8096 6.62695 24.6925 6.59277 24.5704 6.6123C24.5069 6.62207 23.003 6.90527 21.0596 7.77441C20.8741 7.85742 20.7911 8.07227 20.8741 8.25781C20.9571 8.44336 21.1719 8.52637 21.3575 8.44336C22.5294 7.9209 23.5499 7.61328 24.1456 7.46191C23.7989 8.79004 22.7052 12.2227 20.0782 14.8447C17.8468 17.0762 15.1563 18.0723 13.6426 18.4873L16.6456 15.4844H17.6759C17.876 15.4844 18.0421 15.3184 18.0421 15.1182C18.0421 14.918 17.876 14.752 17.6759 14.752H17.378L18.1739 13.9561H19.2042C19.4044 13.9561 19.5704 13.79 19.5704 13.5898C19.5704 13.3896 19.4044 13.2236 19.2042 13.2236H18.9063L20.2784 11.8516C20.42 11.71 20.42 11.4756 20.2784 11.334C20.1368 11.1924 19.9024 11.1924 19.7608 11.334L18.3887 12.7061V12.4033C18.3887 12.2031 18.2227 12.0371 18.0225 12.0371C17.8223 12.0371 17.6563 12.2031 17.6563 12.4033V13.4336L16.8604 14.2295V13.9316C16.8604 13.7314 16.6944 13.5654 16.4942 13.5654C16.294 13.5654 16.128 13.7314 16.128 13.9316V14.9619L14.2237 16.8662C14.253 16.8027 14.2823 16.7393 14.3116 16.6709C14.7364 15.7383 15.21 14.4688 15.5128 12.9795C15.8985 12.4619 16.3184 11.9736 16.7628 11.5293C17.6368 10.6553 18.6817 9.86914 19.8585 9.2002C20.0343 9.10254 20.0977 8.87793 19.9952 8.70215C19.8975 8.52637 19.6729 8.46289 19.4971 8.56543C18.2618 9.26855 17.168 10.0889 16.2452 11.0117C16.0694 11.1875 15.9034 11.3633 15.7374 11.5488C15.7911 11.0361 15.8253 10.5039 15.8253 9.95703C15.8253 7.15918 15.005 4.64453 14.3165 3.02832C13.5694 1.28027 12.8321 0.201172 12.8028 0.152344C12.7344 0.0546875 12.6221 -0.00390625 12.5001 -0.00390625C12.378 -0.00390625 12.2657 0.0546875 12.1973 0.152344C12.1143 0.274414 10.1466 3.16504 9.42878 7.17383C9.3946 7.37402 9.52644 7.56445 9.72663 7.59863C9.92683 7.63281 10.1173 7.50098 10.1514 7.30078C10.6739 4.37598 11.9239 2.02246 12.5001 1.05078C13.2423 2.30078 15.0928 5.84082 15.0928 9.95703C15.0928 12.6182 14.3116 14.9033 13.6573 16.3486C13.3839 16.9541 13.1055 17.4717 12.8663 17.8721V14.127L13.8428 13.1504C13.9844 13.0088 13.9844 12.7744 13.8428 12.6328C13.7012 12.4912 13.4669 12.4912 13.3253 12.6328L12.8663 13.0918V12.0127L13.8428 11.0361C13.9844 10.8945 13.9844 10.6602 13.8428 10.5186C13.7012 10.377 13.4669 10.377 13.3253 10.5186L12.8663 10.9775V9.89356L13.8428 8.91699C13.9844 8.77539 13.9844 8.54102 13.8428 8.39941C13.7012 8.25781 13.4669 8.25781 13.3253 8.39941L12.8663 8.8584V6.83203C12.8663 6.63184 12.7003 6.46582 12.5001 6.46582C12.2999 6.46582 12.1339 6.63184 12.1339 6.83203V8.8584L11.6749 8.39941C11.5333 8.25781 11.2989 8.25781 11.1573 8.39941C11.0157 8.54102 11.0157 8.77539 11.1573 8.91699L12.1339 9.89356V10.9775L11.6749 10.5186C11.5333 10.377 11.2989 10.377 11.1573 10.5186C11.0157 10.6602 11.0157 10.8945 11.1573 11.0361L12.1339 12.0127V13.0967L11.6749 12.6377C11.5333 12.4961 11.2989 12.4961 11.1573 12.6377C11.0157 12.7793 11.0157 13.0137 11.1573 13.1553L12.1339 14.1318V17.877C11.8946 17.4717 11.6212 16.959 11.3428 16.3535C10.6885 14.9082 9.9073 12.6279 9.9073 9.96191C9.9073 9.63477 9.91706 9.29785 9.94148 8.96582C9.95613 8.76563 9.80476 8.58984 9.59968 8.5752C9.39949 8.56055 9.2237 8.71192 9.20905 8.91699C9.18464 9.26856 9.16999 9.62012 9.16999 9.9668C9.16999 10.5137 9.19929 11.0459 9.25788 11.5586C9.09187 11.373 8.92097 11.1924 8.75007 11.0215C6.93366 9.20508 4.77058 8.10645 3.27644 7.50586C1.66023 6.84668 0.483469 6.62695 0.43464 6.61719C0.317453 6.59766 0.195383 6.63184 0.107492 6.71973C0.0244841 6.80273 -0.0145784 6.92481 0.00495284 7.04688C0.0293669 7.16895 0.581125 10.0938 2.52937 13.0527C2.59773 13.1602 2.71491 13.2188 2.83698 13.2188C2.90534 13.2188 2.9737 13.1992 3.03718 13.1602C3.20808 13.0479 3.25202 12.8232 3.13972 12.6523C1.76765 10.5674 1.10847 8.45313 0.854562 7.47656C2.18269 7.82324 5.61042 8.91699 8.23249 11.5391C8.67683 11.9834 9.09675 12.4717 9.48249 12.9893C9.78523 14.4785 10.2589 15.748 10.6837 16.6807C10.713 16.749 10.7423 16.8125 10.7716 16.876L8.86726 14.9717V13.9414C8.86726 13.7412 8.70124 13.5752 8.50105 13.5752C8.30085 13.5752 8.13484 13.7412 8.13484 13.9414V14.2393L7.33894 13.4434V12.4033C7.33894 12.2031 7.17292 12.0371 6.97273 12.0371C6.77253 12.0371 6.60652 12.2031 6.60652 12.4033V12.7012L5.23933 11.3291C5.09773 11.1875 4.86335 11.1875 4.72175 11.3291C4.58015 11.4707 4.58015 11.7051 4.72175 11.8467L6.09382 13.2188H5.79597C5.59577 13.2188 5.42976 13.3848 5.42976 13.585C5.42976 13.7852 5.59577 13.9512 5.79597 13.9512H6.82624L7.62214 14.7471H7.32429C7.12409 14.7471 6.95808 14.9131 6.95808 15.1133C6.95808 15.3135 7.12409 15.4795 7.32429 15.4795H8.35456L11.3575 18.4824C9.84382 18.0723 7.15339 17.0762 4.92195 14.8398C4.64851 14.5664 4.38484 14.2783 4.13581 13.9756C4.00398 13.8193 3.77448 13.7998 3.61823 13.9316C3.46198 14.0635 3.44245 14.293 3.57429 14.4492C3.83796 14.7666 4.12116 15.0742 4.40437 15.3623C4.97077 15.9287 5.56159 16.417 6.15241 16.8369C2.84675 16.9834 0.273508 18.7314 0.15632 18.8096C0.0586638 18.8779 7.0029e-05 18.9902 7.0029e-05 19.1123C7.0029e-05 19.2344 0.0586638 19.3467 0.15632 19.415C0.273508 19.498 3.07136 21.3975 6.57722 21.3975C7.12898 21.3975 7.65144 21.3486 8.14948 21.2705C6.95808 22.7842 6.63093 24.4932 6.61628 24.5713C6.59675 24.6885 6.63093 24.8105 6.71882 24.8984C6.78718 24.9668 6.87995 25.0059 6.97761 25.0059C7.00202 25.0059 7.02155 25.0059 7.04597 25.001C7.13874 24.9863 9.31648 24.5664 10.9376 22.9453C11.4649 22.418 11.8555 21.8418 12.1387 21.3047V24.6445C12.1387 24.8447 12.3048 25.0107 12.505 25.0107C12.7051 25.0107 12.8712 24.8447 12.8712 24.6445V21.3047C13.1544 21.8418 13.5401 22.418 14.0723 22.9453C15.6983 24.5713 17.8712 24.9863 17.9639 25.001C17.9884 25.0059 18.0079 25.0059 18.0323 25.0059C18.13 25.0059 18.2227 24.9668 18.2911 24.8984C18.3741 24.8154 18.4132 24.6934 18.3936 24.5713C18.379 24.4883 18.0518 22.7842 16.8604 21.2705C17.3585 21.3486 17.8809 21.3975 18.4327 21.3975C21.9385 21.3975 24.7364 19.498 24.8536 19.415C24.9512 19.3467 25.0098 19.2344 25.0098 19.1123C25.0098 18.9902 24.9415 18.8779 24.8438 18.8096ZM1.06941 19.1123C2.00202 18.5898 4.13093 17.5645 6.57722 17.5645C6.82624 17.5645 7.07527 17.5742 7.32429 17.5986C8.21296 18.1162 9.0528 18.4824 9.74128 18.7412C9.74616 18.7461 9.75593 18.7461 9.76081 18.751H7.76374C7.56355 18.751 7.39753 18.917 7.39753 19.1172C7.39753 19.3174 7.56355 19.4834 7.76374 19.4834H11.1964C10.1807 20.0107 8.53034 20.665 6.57722 20.665C4.13093 20.6602 2.00202 19.6348 1.06941 19.1123ZM9.18952 21.1924C9.26277 21.1191 9.33601 21.0508 9.41413 20.9824C10.4835 20.6748 11.3428 20.25 11.919 19.918C11.6944 20.6016 11.2501 21.583 10.4151 22.418C9.43855 23.3945 8.2032 23.8975 7.4903 24.1172L9.18952 21.1924ZM15.8106 21.1924C16.7872 22.1689 17.2901 23.4043 17.5098 24.1172C16.7969 23.8926 15.5616 23.3945 14.585 22.418C13.7501 21.583 13.3106 20.6064 13.0811 19.918C13.6573 20.25 14.5216 20.6748 15.586 20.9824C15.6641 21.0508 15.7374 21.1191 15.8106 21.1924ZM18.4229 20.6602C16.4698 20.6602 14.8194 20.0059 13.8038 19.4785H17.2364C17.4366 19.4785 17.6026 19.3125 17.6026 19.1123C17.6026 18.9121 17.4366 18.7461 17.2364 18.7461H15.2393C15.2442 18.7412 15.254 18.7412 15.2589 18.7363C15.9473 18.4775 16.7872 18.1113 17.6759 17.5938C17.9249 17.5742 18.1739 17.5596 18.4229 17.5596C20.8692 17.5596 22.9981 18.585 23.9307 19.1074C22.9981 19.6348 20.8692 20.6602 18.4229 20.6602Z" fill="white"/>
</g>
<defs>
<clipPath id="clip0_339:729">
<rect width="25" height="25" fill="white"/>
</clipPath>
</defs>
</svg>
