<svg width="142" height="45" viewBox="0 0 142 45" fill="none" xmlns="http://www.w3.org/2000/svg">
<g clip-path="url(#clip0)">
<path d="M60.3398 9.59668L69.6181 30.7586H68.2663L65.8085 25.0375H54.9327L52.4748 30.7586H51.123L60.3398 9.59668ZM65.3169 23.9917L60.3398 12.5495L55.4242 23.9917H65.3169Z" fill="white"/>
<path d="M73.2422 30.7587V9.96582H85.4083V11.0731H74.4711V19.6856H83.8108V20.7929H74.4711V29.6514H85.8384V30.7587H73.2422Z" fill="white"/>
<path d="M107.1 33.5271L106.854 33.3426L107.161 33.2195C112.445 31.374 115.886 26.3296 115.886 20.3624C115.886 12.7343 110.049 6.76709 102.676 6.76709C95.2407 6.76709 89.4648 12.7343 89.4648 20.3624C89.4648 24.0535 90.8166 27.4984 93.213 30.0206C95.6708 32.6044 99.0503 33.9577 102.676 33.9577C103.474 33.9577 104.335 33.8962 105.379 33.7117H105.441L105.502 33.7732C114.104 40.8477 122.522 44.4157 130.387 44.4157C134.996 44.4157 139.297 43.2468 142.001 41.3398V39.9864C139.358 42.0165 135.242 43.1853 130.572 43.1853C130.51 43.1853 130.51 43.1853 130.449 43.1853C123.075 43.2468 115.026 39.8634 107.1 33.5271ZM102.614 32.7889C99.2961 32.7889 96.2238 31.497 94.0732 29.1594C91.9227 26.8832 90.7552 23.7459 90.7552 20.3624C90.7552 13.3494 95.8551 7.99744 102.614 7.99744C105.932 7.99744 109.004 9.2893 111.216 11.627C113.367 13.9031 114.534 17.0405 114.534 20.4239C114.534 23.8074 113.367 26.9448 111.216 29.2209C109.066 31.5586 105.994 32.7889 102.614 32.7889Z" fill="white"/>
<path d="M134.381 23.8072C134.381 28.421 131.616 31.1278 126.947 31.1278C122.277 31.1278 119.512 28.421 119.512 23.8072V9.96582H120.802V23.8072C120.802 27.6213 123.137 29.8974 126.947 29.8974C130.756 29.8974 133.091 27.6213 133.091 23.8072V9.96582H134.381V23.8072Z" fill="white"/>
<path d="M140.956 9.96582H139.666V30.7587H140.956V9.96582Z" fill="white"/>
<path d="M20.154 0C18.495 0 16.8974 0.184552 15.3613 0.553656C15.177 0.615173 14.9312 0.67669 14.7469 0.738208C11.4903 1.66097 8.54089 3.38345 6.14453 5.65959C5.96019 5.84414 5.8373 5.96718 5.71441 6.15173C3.37949 8.5509 1.65902 11.5037 0.737343 14.7642C0.675898 14.9487 0.614453 15.1948 0.553007 15.3793C0.184336 16.9173 0 18.5167 0 20.1777C0 31.3123 9.03245 40.3553 20.154 40.3553C21.8131 40.3553 23.4106 40.1708 24.9468 39.8017C25.1311 39.7402 25.3769 39.6787 25.5612 39.6171C28.8178 38.6944 31.7672 36.9719 34.1636 34.6958C34.2865 34.5727 34.4708 34.3882 34.5937 34.2651C36.9286 31.866 38.6491 28.9131 39.5707 25.6527C39.6322 25.4682 39.6936 25.2221 39.7551 25.0375C40.1238 23.4996 40.3081 21.9002 40.3081 20.2392C40.3081 9.04304 31.2756 0 20.154 0ZM38.9563 15.1333L23.2263 19.0704C23.1034 18.7013 22.9191 18.3937 22.6733 18.0861L30.0467 10.704L29.6166 10.2734L22.2432 17.6555C21.936 17.4094 21.6287 17.2248 21.2601 17.1018L25.1926 1.35338C28.4492 2.21462 31.46 3.93711 33.9178 6.3978C36.3756 8.85849 38.0961 11.8728 38.9563 15.1333ZM22.3661 21.2235C21.936 21.6541 21.1372 21.6541 20.7071 21.2235C20.2769 20.7928 20.2769 19.9931 20.7071 19.5625C21.1372 19.1319 21.936 19.1319 22.3661 19.5625C22.7962 20.0546 22.7962 20.7928 22.3661 21.2235ZM20.2155 21.7156C20.6456 22.1462 21.1372 22.2693 21.6902 22.2693C20.7071 23.0075 19.2938 22.8844 18.3721 22.0232C17.389 21.0389 17.389 19.3779 18.3721 18.3937C19.3553 17.4094 21.0143 17.4094 21.9974 18.3937C22.1203 18.5167 22.1817 18.5782 22.2432 18.7013C21.5673 18.3937 20.7685 18.5782 20.2155 19.1319C19.4781 19.8086 19.4781 20.9774 20.2155 21.7156ZM20.154 0.67669C21.6287 0.67669 23.1649 0.861242 24.5781 1.16883L20.6456 16.9173C20.2769 16.8557 19.9697 16.8557 19.601 16.9173L15.4842 1.23035C17.0203 0.861242 18.5565 0.67669 20.154 0.67669ZM14.9312 1.4149L19.048 17.1018C18.6794 17.2248 18.3107 17.4094 18.0035 17.717L18.0649 17.6555L6.63609 6.21325C8.97101 3.87559 11.7975 2.27614 14.9312 1.4149ZM6.20597 6.64387L17.6962 18.1476L17.7577 18.0861C17.5119 18.3937 17.2661 18.7628 17.1432 19.1319L1.41324 14.9487C2.27347 11.8113 3.87105 8.98153 6.20597 6.64387ZM16.9589 19.6855C16.8974 20.0546 16.8974 20.3622 16.9589 20.7313L1.16746 24.6069C0.860234 23.192 0.675898 21.7156 0.675898 20.1777C0.675898 18.5782 0.860234 17.0403 1.22891 15.5024L16.9589 19.6855ZM1.3518 25.2221L17.0818 21.285C17.2047 21.6541 17.389 21.9617 17.6348 22.2693L10.2614 29.6513L10.6915 30.082L18.0649 22.6999C18.3721 22.946 18.6794 23.1305 19.048 23.2535L15.1155 39.002C11.8589 38.1407 8.84812 36.4182 6.39031 33.9576C3.9325 31.4969 2.21203 28.4825 1.3518 25.2221ZM20.154 39.6787C18.6794 39.6787 17.1432 39.4941 15.73 39.1865L19.6625 23.3766C20.0312 23.4381 20.3998 23.4381 20.7071 23.3766L24.8239 39.0635C23.2878 39.4941 21.7516 39.6787 20.154 39.6787ZM25.4383 38.9404L21.3215 23.2535C21.6287 23.1305 21.9974 22.946 22.2432 22.6999L33.7334 34.2036C31.3371 36.4798 28.5106 38.0792 25.4383 38.9404ZM34.1636 33.7115L22.6733 22.2693C22.9191 21.9617 23.1034 21.6541 23.2263 21.285L38.8948 25.4066C38.0346 28.544 36.437 31.3738 34.1636 33.7115ZM23.3492 20.6698C23.4106 20.3007 23.4106 19.9931 23.3492 19.624L39.0792 15.6869C39.3864 17.1018 39.5707 18.5782 39.5707 20.1162C39.5707 21.7156 39.3864 23.2535 39.0177 24.7915L23.3492 20.6698Z" fill="white"/>
</g>
<defs>
<clipPath id="clip0">
<rect width="142" height="44.477" fill="white"/>
</clipPath>
</defs>
</svg>
