<svg width="15" height="15" viewBox="0 0 15 15" fill="none" xmlns="http://www.w3.org/2000/svg">
<path d="M15 2.8125C14.4375 3.09375 13.875 3.1875 13.2188 3.28125C13.875 2.90625 14.3438 2.34375 14.5312 1.59375C13.9688 1.96875 13.3125 2.15625 12.5625 2.34375C12 1.78125 11.1562 1.40625 10.3125 1.40625C8.71875 1.40625 7.3125 2.8125 7.3125 4.5C7.3125 4.78125 7.3125 4.96875 7.40625 5.15625C4.875 5.0625 2.53125 3.84375 1.03125 1.96875C0.75 2.4375 0.65625 2.90625 0.65625 3.5625C0.65625 4.59375 1.21875 5.53125 2.0625 6.09375C1.59375 6.09375 1.125 5.90625 0.65625 5.71875C0.65625 7.21875 1.6875 8.4375 3.09375 8.71875C2.8125 8.8125 2.53125 8.8125 2.25 8.8125C2.0625 8.8125 1.875 8.8125 1.6875 8.71875C2.0625 9.9375 3.1875 10.875 4.59375 10.875C3.5625 11.7188 2.25 12.1875 0.75 12.1875H0C1.40625 13.0312 3 13.5938 4.6875 13.5938C10.3125 13.5938 13.4062 8.90625 13.4062 4.875V4.5C14.0625 4.03125 14.625 3.46875 15 2.8125Z" fill="white"/>
</svg>
